<?xml version="1.0" encoding="UTF-8"?>
<svg width="159px" height="16px" viewBox="0 0 159 16" version="1.1" xmlns="http://www.w3.org/2000/svg" xmlns:xlink="http://www.w3.org/1999/xlink">
    <!-- Generator: Sketch 57.1 (83088) - https://sketch.com -->
    <title>logo</title>
    <desc>Created with Sketch.</desc>
    <g id="Page-1" stroke="none" stroke-width="1" fill="none" fill-rule="evenodd">
        <g id="logo" fill="#888888" fill-rule="nonzero">
            <path d="M18.4926,10.1365 C18.3501,11.3709 17.9149,12.4233 17.1869,13.2938 C16.459,14.1642 15.4698,14.8289 14.2196,15.2878 C12.9693,15.7468 11.4817,15.9763 9.75668,15.9763 C8.31652,15.9763 6.99506,15.8101 5.79229,15.4777 C4.60534,15.1454 3.57666,14.6469 2.70623,13.9822 C1.85163,13.3175 1.18694,12.4946 0.712166,11.5134 C0.237389,10.5163 0,9.35312 0,8.02374 C0,6.69436 0.237389,5.53116 0.712166,4.53412 C1.18694,3.53709 1.85163,2.70623 2.70623,2.04154 C3.57666,1.36103 4.60534,0.854599 5.79229,0.522255 C6.99506,0.174085 8.31652,0 9.75668,0 C11.4817,0 12.9693,0.237388 14.2196,0.712165 C15.4857,1.18694 16.4827,1.86746 17.2107,2.75371 C17.9387,3.62413 18.366,4.68447 18.4926,5.93472 L15.3591,5.93472 C15.1533,5.27003 14.8051,4.7003 14.3145,4.22552 C13.8398,3.73492 13.2226,3.36301 12.4629,3.10979 C11.7033,2.85658 10.8012,2.72997 9.75668,2.72997 C8.45895,2.72997 7.31949,2.93571 6.33828,3.34718 C5.35707,3.74283 4.59743,4.3363 4.05935,5.1276 C3.52127,5.90307 3.25223,6.86845 3.25223,8.02374 C3.25223,9.1632 3.52127,10.1207 4.05935,10.8961 C4.59743,11.6716 5.35707,12.2651 6.33828,12.6766 C7.31949,13.0722 8.45895,13.27 9.75668,13.27 C10.8012,13.27 11.6954,13.1434 12.4392,12.8902 C13.1988,12.637 13.816,12.273 14.2908,11.7982 C14.7814,11.3234 15.1375,10.7695 15.3591,10.1365 L18.4926,10.1365 Z" id="Path"></path>
            <path d="M30.7125,15.9763 C28.671,15.9763 26.9222,15.6597 25.4662,15.0267 C24.0261,14.3778 22.9183,13.4599 22.1428,12.273 C21.3832,11.0861 21.0033,9.66172 21.0033,8 C21.0033,6.32245 21.3832,4.89021 22.1428,3.70326 C22.9183,2.51632 24.0261,1.60633 25.4662,0.973294 C26.9222,0.324431 28.671,0 30.7125,0 C32.7699,0 34.5187,0.324431 35.9588,0.973294 C37.399,1.60633 38.4989,2.51632 39.2585,3.70326 C40.034,4.89021 40.4217,6.32245 40.4217,8 C40.4217,9.66172 40.034,11.0861 39.2585,12.273 C38.4989,13.4599 37.399,14.3778 35.9588,15.0267 C34.5187,15.6597 32.7699,15.9763 30.7125,15.9763 Z M30.7125,13.2463 C31.9786,13.2463 33.0864,13.0564 34.036,12.6766 C35.0014,12.2967 35.7531,11.7191 36.2912,10.9436 C36.8451,10.1681 37.122,9.18694 37.122,8 C37.122,6.81306 36.8451,5.83185 36.2912,5.05638 C35.7531,4.28091 35.0014,3.70326 34.036,3.32344 C33.0864,2.92779 31.9786,2.72997 30.7125,2.72997 C29.4623,2.72997 28.3466,2.92779 27.3654,3.32344 C26.3841,3.70326 25.6166,4.28091 25.0627,5.05638 C24.5088,5.83185 24.2318,6.81306 24.2318,8 C24.2318,9.18694 24.5088,10.1681 25.0627,10.9436 C25.6166,11.7191 26.3841,12.2967 27.3654,12.6766 C28.3466,13.0564 29.4623,13.2463 30.7125,13.2463 Z" id="Shape"></path>
            <polygon id="Path" points="55.4444 14.1009 53.9488 14.1009 62.7797 0.308606 65.9369 0.308606 65.9369 15.6677 62.7797 15.6677 62.7797 4.51039 63.5393 4.72404 56.4889 15.6677 52.9518 15.6677 45.9013 4.77151 46.661 4.55786 46.661 15.6677 43.5037 15.6677 43.5037 0.308606 46.661 0.308606"></polygon>
            <path d="M69.584,15.6677 L69.584,0.308606 L78.4386,0.308606 C80.496,0.308606 82.0548,0.656775 83.1152,1.35312 C84.1913,2.03363 84.7294,3.0544 84.7294,4.41543 C84.7294,5.28586 84.5158,5.97428 84.0885,6.48071 C83.6612,6.97132 83.0519,7.33531 82.2606,7.5727 C81.4851,7.81009 80.5672,7.96043 79.5069,8.02374 L79.6018,7.85757 C80.3773,7.87339 81.1053,7.92878 81.7858,8.02374 C82.4821,8.11869 83.0914,8.29278 83.6137,8.54599 C84.1359,8.79921 84.5474,9.15529 84.8481,9.61424 C85.1488,10.0574 85.2991,10.6429 85.2991,11.3709 C85.2991,12.3205 85.0459,13.1118 84.5395,13.7448 C84.0331,14.362 83.3288,14.8289 82.4267,15.1454 C81.5247,15.4619 80.4802,15.636 79.2932,15.6677 L69.584,15.6677 Z M72.7413,13.0564 L78.9609,13.0564 C79.9579,13.0564 80.7255,12.8981 81.2635,12.5816 C81.8016,12.2493 82.0707,11.727 82.0707,11.0148 C82.0707,10.4926 81.9124,10.1128 81.5959,9.87537 C81.2794,9.63798 80.86,9.49555 80.3377,9.44807 C79.8155,9.38477 79.2537,9.35312 78.6523,9.35312 L72.7413,9.35312 L72.7413,13.0564 Z M72.7413,6.81306 L78.3199,6.81306 C79.3169,6.81306 80.0845,6.67062 80.6226,6.38576 C81.1607,6.08506 81.4297,5.57863 81.4297,4.86647 C81.4297,4.1543 81.1607,3.65579 80.6226,3.37092 C80.0845,3.07023 79.3723,2.91988 78.4861,2.91988 L72.7413,2.91988 L72.7413,6.81306 Z" id="Shape"></path>
            <path d="M90.3654,12.3205 L90.3654,9.68546 L100.526,9.68546 L100.526,12.3205 L90.3654,12.3205 Z M86.5434,15.6677 L93.76,0.308606 L97.1784,0.308606 L104.466,15.6677 L101.024,15.6677 L94.7096,1.82789 L96.2289,1.82789 L89.9618,15.6677 L86.5434,15.6677 Z" id="Shape"></path>
            <path d="M105.47,10.4926 L108.675,10.4926 C108.738,11.0307 108.983,11.5213 109.41,11.9644 C109.854,12.3917 110.431,12.7319 111.143,12.9852 C111.856,13.2226 112.655,13.3412 113.541,13.3412 C114.348,13.3412 115.013,13.2542 115.535,13.0801 C116.057,12.906 116.445,12.6607 116.698,12.3442 C116.951,12.0277 117.078,11.6479 117.078,11.2047 C117.078,10.7774 116.92,10.453 116.603,10.2315 C116.287,9.99406 115.788,9.80415 115.108,9.66172 C114.427,9.50346 113.533,9.3452 112.425,9.18694 C111.555,9.06034 110.732,8.88625 109.956,8.66469 C109.181,8.4273 108.493,8.12661 107.891,7.76261 C107.306,7.39862 106.839,6.95549 106.491,6.43323 C106.158,5.89515 105.992,5.26212 105.992,4.53412 C105.992,3.63205 106.245,2.84075 106.752,2.16024 C107.274,1.47972 108.041,0.949554 109.054,0.569733 C110.067,0.189911 111.31,0 112.781,0 C114.997,0 116.698,0.474777 117.885,1.42433 C119.088,2.35806 119.674,3.64787 119.642,5.29377 L116.556,5.29377 C116.493,4.36004 116.097,3.68744 115.369,3.27596 C114.657,2.86449 113.755,2.65875 112.663,2.65875 C111.65,2.65875 110.811,2.8091 110.146,3.10979 C109.497,3.41048 109.173,3.92483 109.173,4.65282 C109.173,4.93769 109.252,5.1909 109.41,5.41246 C109.569,5.6182 109.838,5.8002 110.218,5.95846 C110.597,6.11672 111.112,6.26706 111.761,6.4095 C112.409,6.55193 113.217,6.69436 114.182,6.8368 C115.084,6.9634 115.899,7.13749 116.627,7.35905 C117.371,7.56479 118.004,7.84174 118.526,8.18991 C119.064,8.52225 119.476,8.94955 119.761,9.47181 C120.045,9.99407 120.188,10.635 120.188,11.3947 C120.188,12.3284 119.943,13.1434 119.452,13.8398 C118.977,14.5203 118.233,15.0504 117.221,15.4303 C116.223,15.8101 114.926,16 113.327,16 C112.188,16 111.183,15.8813 110.312,15.6439 C109.442,15.3907 108.69,15.0584 108.057,14.6469 C107.424,14.2354 106.91,13.7844 106.514,13.2938 C106.119,12.8032 105.834,12.3126 105.66,11.822 C105.501,11.3314 105.438,10.8882 105.47,10.4926 Z" id="Path"></path>
            <polygon id="Path" points="126.131 9.25816 126.131 13.0326 137.976 13.0326 137.976 15.6677 122.973 15.6677 122.973 0.308606 137.953 0.308606 137.953 2.94362 126.131 2.94362 126.131 6.76558 135.816 6.76558 135.816 9.25816"></polygon>
            <path d="M150.001,0.308606 C151.726,0.308606 153.166,0.514342 154.322,0.925815 C155.477,1.33729 156.395,1.89911 157.075,2.61128 C157.772,3.30762 158.262,4.11474 158.547,5.03264 C158.848,5.95054 158.998,6.91592 158.998,7.92878 C158.998,8.94164 158.832,9.91494 158.5,10.8487 C158.183,11.7824 157.669,12.6133 156.957,13.3412 C156.26,14.0534 155.335,14.6231 154.179,15.0504 C153.04,15.4619 151.647,15.6677 150.001,15.6677 L141.218,15.6677 L141.218,0.308606 L150.001,0.308606 Z M144.375,12.9614 L149.93,12.9614 C151.07,12.9614 152.011,12.8269 152.755,12.5579 C153.515,12.273 154.116,11.8932 154.559,11.4184 C155.002,10.9436 155.319,10.4055 155.509,9.80415 C155.699,9.20277 155.794,8.57765 155.794,7.92878 C155.794,7.27992 155.699,6.66271 155.509,6.07715 C155.319,5.49159 155.002,4.96934 154.559,4.51039 C154.116,4.05143 153.515,3.68744 152.755,3.4184 C152.011,3.14936 151.07,3.01484 149.93,3.01484 L144.375,3.01484 L144.375,12.9614 Z" id="Shape"></path>
        </g>
    </g>
</svg>